***** The.Messenger.2009.DVDRiP.x264.AC3.NORDIC.mkv.Zen_Bud ****

Format                           : Matroska
File size                        : 983 MiB
Duration                         : 1h 48mn
Overall bit rate                 : 1 271 Kbps
Writing application              : HandBrake 0.9.4

Video

Format                           : AVC
Duration                         : 1h 48mn
Bit rate                         : 798 Kbps
Width                            : 720 pixels
Height                           : 436 pixels
Display aspect ratio             : 2.35:1
Stream size                      : 617 MiB (63%)
Writing library                  : x264 core 79



Audio

Format                           : AC-3
Duration                         : 1h 48mn
Bit rate                         : 448 Kbps
Channel(s)                       : 6 channels
Channel positions                : Front: L C R, Side: L R, LFE
Sampling rate                    : 48.0 KHz
Bit depth                        : 16 bits
Stream size                      : 346 MiB (35%)
Language                         : English

Text #1
Language                         : Danish

Text #2
Language                         : Swedish

Text #3
Language                         : Norwegian

Text #4
Language                         : Finnish

